# xmcd
#
# Track frame offsets:
# 150
# 15187
# 27405
# 42702
# 56127
# 77745
# 87992
# 101962
# 126667
# 135900
# 150492
#
# Disc length: 2173 seconds
#
#
# Revision: 3
# Processed by: cddbd v1.5.1PL0 Copyright (c) Steve Scherf et al.
# Submitted via: FreeRIP 2.941 
#
DISCID=8e087b0b
DTITLE=Ricky Van Shelton - Don't Overlook Salvation
DYEAR=1900
DGENRE=Country
TTITLE0=Don't Overlook Salvation
TTITLE1=To My Mansion In The Sky
TTITLE2=Family Bible
TTITLE3=Holy (I Bowed On My Knees and Cried Holy)
TTITLE4=Supper Time
TTITLE5=I Shall Not Be Moved
TTITLE6=Mansion Over The Hilltop
TTITLE7=The Old Rugged Cross
TTITLE8=I Wouldn't Take Nothin' For My Journey
TTITLE9=I Saw A Man
TTITLE10=Just As I Am/He Smiled As He Ran Out To Play
EXTD=
EXTT0=
EXTT1=
EXTT2=
EXTT3=
EXTT4=
EXTT5=
EXTT6=
EXTT7=
EXTT8=
EXTT9=
EXTT10=
PLAYORDER=
